<?xml version="1.0" standalone="no"?>
<!DOCTYPE svg PUBLIC "-//W3C//DTD SVG 20010904//EN"
 "http://www.w3.org/TR/2001/REC-SVG-20010904/DTD/svg10.dtd">
<svg version="1.0" xmlns="http://www.w3.org/2000/svg"
 width="715.000000pt" height="715.000000pt" viewBox="0 0 715.000000 715.000000"
 preserveAspectRatio="xMidYMid meet">

<g transform="translate(0.000000,715.000000) scale(0.100000,-0.100000)"
fill="#000000" stroke="none">
<path d="M4310 6302 c0 -4 20 -17 44 -30 23 -13 60 -41 81 -63 21 -22 54 -48
74 -58 39 -20 126 -41 168 -41 l26 0 -24 26 c-33 36 -116 97 -164 121 -60 30
-205 61 -205 45z"/>
<path d="M2678 6275 c-88 -22 -147 -54 -212 -118 l-61 -58 69 6 c90 8 125 23
208 93 38 31 81 65 96 74 l27 18 -35 -1 c-19 0 -61 -7 -92 -14z"/>
<path d="M2280 6116 c-95 -29 -205 -118 -246 -199 l-25 -49 33 6 c95 19 120
30 154 70 38 44 128 176 122 180 -2 1 -19 -2 -38 -8z"/>
<path d="M4824 6084 c20 -27 51 -71 69 -99 18 -27 46 -58 64 -68 31 -18 143
-36 143 -23 0 15 -52 87 -87 121 -34 33 -147 95 -202 111 -23 6 -22 3 13 -42z"/>
<path d="M3285 6084 c-216 -28 -438 -93 -635 -185 -102 -48 -131 -65 -275
-157 -284 -181 -559 -489 -719 -804 -170 -336 -239 -623 -239 -998 0 -335 64
-626 204 -925 290 -620 879 -1075 1550 -1196 458 -82 926 -17 1329 186 419
211 760 552 963 960 178 358 254 734 227 1119 -39 555 -265 1040 -662 1421
-405 390 -927 598 -1488 594 -80 -1 -194 -8 -255 -15z m605 -39 c455 -77 881
-303 1190 -631 101 -107 135 -150 221 -278 319 -474 435 -1055 323 -1616 -136
-683 -600 -1258 -1239 -1535 -269 -117 -519 -168 -825 -168 -293 -1 -519 41
-780 145 -146 58 -359 174 -450 245 -136 107 -200 162 -276 239 -315 320 -518
730 -590 1189 -23 146 -23 458 -1 607 71 468 270 869 597 1199 204 205 408
346 675 464 161 71 428 140 620 159 92 9 444 -3 535 -19z"/>
<path d="M3350 5974 c-619 -77 -1124 -382 -1477 -896 -18 -26 -33 -51 -33 -54
0 -4 -6 -15 -14 -23 -25 -28 -136 -259 -171 -356 -194 -536 -157 -1128 102
-1637 127 -249 305 -469 528 -652 310 -255 676 -404 1094 -446 254 -25 535 7
793 89 523 169 964 554 1202 1051 217 454 260 935 130 1445 -42 164 -161 423
-266 580 -320 475 -790 781 -1353 881 -87 15 -455 28 -535 18z m456 -135 c25
-43 49 -81 54 -84 13 -8 22 115 9 131 -9 12 -5 14 26 14 37 0 37 -1 21 -19
-11 -13 -22 -55 -31 -127 -8 -60 -15 -113 -15 -117 0 -18 -19 7 -80 107 -36
58 -68 106 -71 106 -4 0 -11 -37 -17 -82 -10 -73 -9 -84 5 -95 23 -18 14 -22
-32 -14 -35 6 -38 8 -21 18 26 15 52 209 31 233 -12 13 -8 15 30 12 44 -4 45
-5 91 -83z m-264 -34 c27 -61 57 -118 65 -127 15 -17 12 -18 -48 -18 -41 0
-59 4 -50 9 9 6 11 18 7 35 -6 24 -11 26 -55 26 -35 0 -51 -4 -55 -16 -10 -27
-7 -42 12 -47 9 -3 -3 -5 -27 -6 -41 -1 -43 0 -28 17 17 18 63 117 92 195 10
26 22 46 28 44 5 -1 32 -52 59 -112z m-283 87 c-8 -13 -6 -42 10 -119 12 -56
21 -104 21 -107 0 -3 8 -6 17 -6 33 0 -2 -17 -55 -27 -49 -10 -51 -9 -38 6 12
13 13 25 6 52 -4 18 -14 60 -20 92 -7 32 -13 57 -15 55 -2 -2 -14 -51 -25
-108 -12 -58 -24 -108 -27 -113 -4 -7 -100 120 -124 164 -19 36 -19 15 -2 -71
9 -47 24 -91 34 -101 15 -15 15 -18 2 -23 -8 -3 -24 -6 -35 -6 -16 0 -18 3 -9
14 8 10 8 30 -4 82 -27 126 -33 147 -46 154 -12 8 -5 11 53 24 24 5 31 -1 74
-62 26 -37 50 -71 54 -75 5 -5 13 24 20 65 17 104 17 105 58 116 58 15 64 15
51 -6z m886 -187 c10 -66 22 -126 28 -133 16 -21 4 -22 -52 -5 -32 9 -49 18
-41 23 6 4 10 20 8 36 -2 24 -10 30 -45 40 -40 12 -44 11 -58 -9 -13 -19 -13
-23 1 -38 15 -16 13 -17 -25 -7 l-40 10 33 34 c18 18 61 69 97 113 38 48 66
75 70 68 3 -7 14 -66 24 -132z m-1359 38 c22 -29 18 -46 -7 -32 -26 13 -88 3
-95 -16 -3 -7 4 -32 16 -55 21 -41 22 -41 41 -24 12 11 17 24 13 36 -11 36 12
17 34 -27 22 -45 31 -86 11 -52 -8 14 -69 26 -69 13 0 -20 44 -95 58 -98 11
-3 -1 -13 -36 -32 -49 -25 -53 -25 -48 -8 8 25 -81 212 -101 212 -30 0 -9 17
70 57 96 48 96 48 113 26z m1662 -27 c15 -8 36 -23 46 -35 11 -12 27 -21 37
-21 18 0 18 -2 2 -35 -19 -39 -33 -45 -33 -14 0 11 -5 30 -12 42 -42 79 -130
56 -172 -45 -29 -70 -15 -120 36 -133 23 -6 29 -2 43 25 13 25 14 35 4 46 -17
20 -5 18 54 -13 36 -18 46 -28 34 -31 -9 -2 -24 -17 -32 -33 -20 -37 -53 -38
-122 -3 -40 19 -57 35 -72 68 -12 23 -21 53 -21 67 0 34 49 107 80 118 38 14
98 13 128 -3z m247 -157 c97 -67 100 -71 80 -103 -22 -33 -34 -33 -27 -1 5 26
-16 58 -49 76 -13 7 -22 0 -42 -30 -23 -34 -24 -41 -11 -52 11 -9 18 -8 34 6
33 30 32 11 -1 -36 -46 -64 -49 -66 -43 -27 9 54 -17 56 -51 5 l-27 -42 27
-22 c28 -25 74 -30 93 -11 6 6 15 8 19 5 4 -4 -5 -20 -20 -34 l-26 -27 -86 59
c-84 57 -111 81 -81 69 14 -5 53 41 121 143 23 35 25 46 15 58 -22 27 0 16 75
-36z m-1018 31 c339 -27 629 -142 900 -357 83 -66 197 -179 253 -253 19 -25
37 -47 41 -50 18 -15 99 -149 144 -240 112 -225 158 -393 174 -645 49 -749
-413 -1436 -1124 -1674 -181 -60 -288 -76 -515 -75 -174 0 -221 4 -310 23
-659 141 -1148 628 -1289 1284 -92 428 -3 891 242 1257 175 261 398 453 677
583 170 80 366 133 538 145 51 4 105 8 120 10 15 1 82 -2 149 -8z m-1120 -25
c67 -45 84 -145 34 -206 -67 -82 -184 -70 -232 22 -37 74 -13 147 62 187 49
26 93 25 136 -3z m2354 -292 c-17 -43 -31 -81 -31 -84 0 -4 36 7 80 24 l81 31
37 -37 c35 -35 35 -37 13 -37 -32 0 -174 -138 -167 -162 7 -30 -10 -20 -48 26
-25 30 -30 43 -18 40 11 -3 40 19 87 67 39 39 61 68 50 64 -11 -4 -60 -22
-109 -41 -49 -19 -91 -32 -94 -29 -5 5 36 110 69 178 10 20 15 37 11 37 -16 0
-144 -138 -138 -149 13 -21 -11 -11 -35 15 -23 25 -24 26 -3 22 31 -4 186 144
177 170 -3 9 11 1 32 -20 l38 -36 -32 -79z m-2746 21 c34 -22 31 -31 -6 -26
-22 3 -37 -2 -55 -19 -13 -12 -24 -27 -24 -33 0 -11 63 -66 76 -66 4 0 4 18 1
40 l-5 40 49 -42 c52 -44 57 -54 18 -40 -56 21 -64 -10 -13 -52 l35 -29 24 23
c29 27 39 64 25 90 -16 29 5 25 29 -6 l21 -26 -27 -32 c-70 -84 -113 -127
-113 -113 0 8 -30 41 -67 73 -38 32 -74 65 -82 72 -8 8 -22 11 -32 9 -29 -8
-23 3 41 73 33 36 60 68 60 73 0 12 19 8 45 -9z m-174 -215 l24 -21 -23 5
c-26 6 -69 -24 -58 -41 14 -23 176 -121 191 -116 22 9 19 -2 -15 -52 -34 -49
-38 -52 -36 -27 1 17 -155 131 -181 132 -18 1 -27 -43 -13 -68 13 -25 3 -27
-28 -3 l-22 17 61 98 c33 53 64 97 69 97 4 0 18 -9 31 -21z m3219 -66 c27 -43
50 -83 50 -89 0 -13 -49 -48 -57 -40 -3 2 2 15 10 27 12 16 13 28 6 47 -19 50
-27 53 -70 25 -46 -30 -46 -49 0 -47 36 2 40 -8 9 -24 -13 -6 -38 -21 -57 -34
l-35 -22 19 32 c14 23 16 35 8 43 -15 15 -83 -29 -83 -54 0 -29 45 -67 80 -67
40 0 38 -13 -3 -28 -40 -15 -47 -15 -47 -2 0 5 -25 46 -55 91 -51 78 -62 106
-33 82 10 -8 37 5 103 48 50 33 91 66 93 74 2 8 5 15 8 15 2 0 26 -35 54 -77z
m-3315 -244 c47 -23 89 -47 96 -55 18 -22 13 -80 -10 -118 -36 -58 -64 -60
-169 -10 -42 19 -84 33 -94 31 -23 -7 -23 4 4 61 15 33 23 42 26 29 4 -21 150
-97 186 -97 26 0 40 14 48 47 9 34 -14 56 -101 97 -66 31 -84 36 -96 26 -20
-16 -19 -6 2 33 13 25 18 28 21 14 2 -11 37 -34 87 -58z m3445 17 c12 -43 11
-45 -34 -122 -25 -44 -41 -80 -36 -82 16 -6 110 40 110 54 0 23 16 16 28 -11
16 -35 15 -37 -9 -30 -13 4 -58 -8 -125 -35 -58 -24 -107 -40 -110 -37 -3 3
22 55 56 117 34 61 60 113 58 116 -7 6 -152 -56 -160 -69 -4 -6 -4 -15 -2 -19
3 -4 3 -8 0 -8 -6 0 -36 55 -36 65 0 3 7 2 17 -3 24 -14 213 65 213 90 0 33
17 18 30 -26z m-3632 -262 c27 -8 29 -24 2 -24 -18 0 -40 -26 -40 -48 0 -5 48
-21 106 -36 82 -21 109 -24 120 -15 17 14 18 6 2 -61 -11 -49 -13 -51 -27 -32
-11 13 -49 28 -114 44 -54 13 -100 22 -102 19 -12 -11 -4 -62 10 -67 25 -10
17 -22 -11 -16 -36 7 -39 22 -20 100 40 158 33 146 74 136z m3759 -109 c13
-55 22 -106 20 -114 -1 -8 -14 -18 -29 -22 -31 -8 -36 2 -13 21 8 7 15 26 15
42 0 23 -4 28 -17 25 -10 -3 -54 -13 -98 -22 -44 -9 -90 -23 -102 -31 -19 -12
-22 -12 -27 4 -8 27 -17 98 -10 85 8 -18 24 -16 137 9 80 17 97 25 97 40 0 10
-14 27 -31 37 -27 16 -28 20 -13 24 43 11 49 4 71 -98z m-3726 -220 c98 -15
104 -15 117 2 12 15 13 9 7 -42 -4 -33 -9 -62 -11 -64 -2 -2 -10 3 -18 12 -9
9 -55 20 -117 28 -96 12 -102 12 -115 -6 -13 -17 -13 -13 -8 30 8 71 12 79 27
66 7 -6 60 -17 118 -26z m3637 -121 c25 -30 35 -35 56 -30 61 15 116 -57 82
-109 -22 -33 -50 -31 -82 5 l-27 29 -33 -26 c-41 -30 -41 -36 -9 -53 20 -11
27 -11 40 0 13 11 15 8 15 -24 0 -20 -4 -36 -10 -36 -5 0 -10 4 -10 10 0 5
-18 19 -39 30 -34 17 -41 18 -51 5 -7 -8 -10 -24 -7 -35 10 -39 -34 -15 -47
25 -3 11 1 33 9 48 13 25 13 32 0 57 -55 106 40 192 113 104z m-3752 -47 c-40
-32 -33 -62 14 -61 196 3 198 4 203 22 3 9 5 -14 5 -53 0 -38 -2 -62 -5 -52
-4 15 -18 17 -117 17 -62 0 -115 -2 -118 -5 -13 -14 7 -57 31 -68 l26 -11 -33
-4 c-19 -2 -35 -2 -37 0 -3 3 -8 203 -6 231 1 4 16 7 34 7 l32 0 -29 -23z
m219 -272 c14 -13 25 -32 26 -42 5 -92 3 -113 -7 -113 -6 0 -26 -3 -43 -6 -20
-4 -31 -3 -31 5 0 6 6 11 13 11 38 0 71 86 43 109 -26 22 -50 8 -76 -46 -14
-28 -34 -61 -44 -72 -26 -29 -71 -27 -101 3 -21 21 -24 33 -22 80 1 31 5 56 8
56 4 0 22 3 40 7 l34 6 -32 -30 c-40 -38 -46 -88 -11 -98 25 -8 53 22 63 68
18 78 92 111 140 62z m3479 -107 c-3 -4 -16 -8 -29 -8 -28 0 -65 -35 -65 -61
0 -64 36 -64 99 1 40 42 55 50 84 50 26 0 41 -7 56 -26 26 -33 26 -54 2 -108
-18 -39 -23 -42 -51 -38 -41 6 -46 18 -10 25 35 8 64 48 55 77 -10 33 -42 23
-92 -30 -63 -65 -93 -72 -133 -32 -34 34 -40 83 -15 116 8 11 15 30 15 42 0
20 2 21 45 11 24 -6 42 -14 39 -19z m-3424 -117 c0 -5 -34 -55 -75 -111 -42
-57 -74 -105 -72 -107 2 -2 41 7 86 19 59 17 83 28 87 42 7 22 17 10 28 -37 6
-25 5 -26 -12 -16 -28 18 -201 -24 -224 -54 -16 -21 -16 -21 -28 22 l-11 43
56 75 c31 41 55 77 52 79 -9 9 -111 -24 -122 -40 -11 -15 -13 -14 -19 6 -10
40 -8 49 12 38 12 -8 45 -3 122 19 122 34 120 34 120 22z m3440 -130 c14 -10
36 -33 48 -52 29 -42 26 -106 -9 -152 -13 -17 -22 -39 -22 -49 2 -22 4 -22
-43 -1 l-39 17 27 5 c37 8 66 34 74 67 22 86 -138 163 -203 98 -23 -23 -25
-31 -20 -77 6 -47 5 -50 -8 -33 -19 25 -19 67 -1 110 35 85 126 115 196 67z
m-3341 -158 c8 -21 16 -43 18 -50 3 -7 -2 -10 -14 -7 -29 8 -213 -81 -214
-103 0 -10 -11 4 -25 31 -29 60 -30 66 -5 59 23 -6 211 80 211 96 0 24 17 9
29 -26z m3195 -137 c79 -40 99 -46 111 -36 21 18 19 7 -12 -53 -19 -36 -28
-47 -31 -34 -4 20 -189 117 -209 110 -17 -6 -16 -1 9 52 18 36 24 42 29 28 4
-10 50 -40 103 -67z m-126 -123 c26 -17 67 -46 91 -62 36 -26 47 -29 59 -18
13 10 15 9 10 -4 -5 -13 -96 -147 -114 -168 -2 -2 -18 6 -36 18 -34 21 -32 24
13 21 20 -1 33 7 50 31 l22 32 -34 28 c-19 16 -38 27 -44 25 -12 -4 -11 -32 0
-60 7 -15 -2 -12 -39 14 -61 44 -65 51 -25 48 18 -2 34 2 36 9 5 14 -72 67
-85 59 -5 -3 -17 -22 -26 -41 -15 -32 -16 -39 -2 -65 8 -17 12 -30 8 -30 -10
0 -52 43 -52 54 0 6 26 49 57 95 41 60 59 79 61 65 2 -10 24 -33 50 -51z
m-2958 53 c0 -3 -16 -60 -35 -127 -19 -67 -33 -124 -31 -127 5 -4 86 49 123
81 12 11 19 25 16 33 -8 21 7 17 28 -8 23 -28 27 -57 4 -38 -12 10 -27 3 -82
-34 -96 -66 -101 -70 -111 -96 -8 -22 -9 -22 -32 14 l-23 38 27 86 c14 48 26
91 26 95 0 8 -90 -51 -102 -67 -3 -5 -4 -15 -1 -23 9 -23 -5 -14 -28 19 -19
27 -20 31 -5 25 17 -7 25 -2 156 92 52 37 70 47 70 37z m2836 -310 c58 -55 73
-65 94 -60 l25 6 -25 -29 c-39 -44 -40 -44 -140 -37 l-95 6 40 -41 c23 -25 48
-41 62 -41 29 0 29 -5 -2 -38 l-25 -27 0 24 c0 16 -26 48 -87 108 l-88 84 134
-7 c100 -5 132 -3 127 5 -19 30 -111 106 -127 105 -24 -1 -24 5 3 33 l23 24 6
-24 c4 -13 37 -54 75 -91z m-2616 18 c0 -2 -6 -1 -14 2 -13 5 -36 -22 -36 -43
0 -4 14 -23 31 -41 29 -31 33 -32 53 -19 12 9 20 23 18 33 -3 13 6 9 35 -17
21 -19 56 -47 79 -63 39 -29 40 -30 22 -48 -26 -26 -22 -44 18 -74 28 -22 39
-25 52 -17 10 6 17 20 16 32 -1 27 6 27 42 -4 27 -23 27 -25 8 -25 -12 0 -73
-29 -135 -65 -62 -35 -115 -62 -117 -60 -2 2 8 58 23 125 14 66 25 130 23 143
-5 34 -40 32 -172 -13 -66 -22 -122 -38 -124 -35 -3 2 18 58 47 124 28 66 51
128 51 138 0 13 11 7 40 -25 22 -24 40 -45 40 -48z m2384 -194 c85 -75 65
-195 -41 -242 -23 -10 -43 -23 -43 -28 0 -19 -16 -10 -39 21 -23 30 -22 54 1
31 18 -18 73 -14 99 7 63 51 -14 202 -103 201 -30 -1 -65 -31 -74 -64 -8 -35
-24 -43 -24 -13 0 54 79 117 147 117 33 0 50 -7 77 -30z m-290 -105 c-7 -17
70 -179 98 -205 20 -18 20 -19 -71 -64 l-91 -46 -15 30 c-21 40 -19 45 11 26
21 -14 31 -15 60 -6 40 13 43 31 14 78 -17 28 -23 32 -35 22 -9 -8 -13 -21 -9
-36 10 -39 -2 -28 -34 31 -28 52 -29 73 -2 40 14 -17 36 -20 45 -5 8 12 -32
90 -47 90 -6 0 -26 -11 -45 -26 -25 -19 -33 -33 -33 -57 0 -38 -17 -26 -26 18
-5 29 -2 32 83 77 97 52 105 55 97 33z m-1678 -17 c27 -12 43 -23 36 -26 -12
-4 -107 -181 -100 -187 2 -2 41 32 88 76 47 43 89 79 93 79 5 0 6 -55 3 -122
l-6 -123 40 85 c27 56 39 92 35 107 -7 28 -3 28 38 6 27 -15 29 -18 12 -21
-25 -4 -110 -181 -102 -212 3 -12 2 -20 -1 -18 -4 2 -24 10 -44 18 l-38 14 0
94 0 94 -66 -60 -65 -60 -37 15 c-45 18 -62 33 -39 33 21 0 111 185 104 212
-6 22 -9 22 49 -4z m1453 -100 c5 -13 12 -34 16 -47 l8 -25 -32 27 c-37 30
-81 35 -105 11 -33 -32 -9 -57 73 -73 94 -19 128 -79 76 -135 -17 -18 -34 -26
-58 -26 -18 0 -38 -5 -44 -11 -9 -9 -16 -2 -27 26 -20 46 -16 51 14 25 36 -31
100 -25 100 10 0 26 -18 36 -85 48 -69 14 -95 37 -95 87 0 43 47 85 95 85 19
0 37 5 40 10 9 15 15 12 24 -12z m-1035 -59 c70 -18 86 -24 74 -33 -22 -16
-70 -217 -56 -233 6 -7 7 -13 4 -13 -19 0 -182 44 -190 51 -5 5 -5 21 1 41 9
29 11 30 17 13 15 -40 24 -50 55 -59 17 -5 33 -7 36 -5 2 3 8 24 14 47 7 36 6
44 -6 49 -9 4 -23 -3 -35 -18 l-20 -24 6 30 c4 17 9 45 12 63 8 38 24 43 24 7
0 -14 2 -25 4 -25 2 0 11 -3 19 -6 11 -4 17 4 22 28 3 18 9 41 11 50 4 13 -4
19 -28 26 -37 10 -76 0 -95 -25 -21 -27 -24 -10 -5 30 11 23 22 35 32 32 8 -2
55 -14 104 -26z"/>
<path d="M3442 5795 c-18 -38 -15 -45 18 -45 17 0 30 4 30 10 0 15 -23 60 -30
60 -4 0 -12 -11 -18 -25z"/>
<path d="M4037 5724 c-22 -29 -21 -30 16 -39 26 -7 27 -5 27 29 0 43 -17 47
-43 10z"/>
<path d="M3350 5543 c-434 -69 -773 -261 -1042 -588 -147 -179 -275 -456 -323
-702 -36 -182 -34 -467 5 -646 169 -777 849 -1308 1630 -1274 243 11 436 60
642 163 482 241 809 702 879 1239 15 115 6 401 -16 518 -86 463 -400 890 -816
1110 -176 94 -339 148 -526 176 -67 10 -377 13 -433 4z m423 -34 c564 -84
1031 -455 1240 -984 83 -210 111 -380 104 -628 -7 -261 -44 -418 -148 -637
-85 -179 -180 -311 -327 -455 -218 -213 -513 -366 -814 -422 -144 -27 -420
-24 -566 5 -391 78 -725 289 -963 607 -156 208 -263 469 -298 728 -15 111 -13
344 4 462 97 669 639 1216 1310 1321 101 15 364 17 458 3z"/>
<path d="M3320 5406 c-477 -84 -870 -379 -1083 -811 -175 -356 -199 -782 -64
-1155 72 -200 167 -353 327 -530 84 -92 265 -227 394 -292 364 -184 808 -207
1178 -62 113 44 172 74 258 128 80 50 68 41 170 127 252 212 425 505 497 839
26 122 26 469 -1 590 -74 344 -259 645 -532 868 -84 69 -258 168 -370 212
-183 72 -290 92 -509 96 -128 2 -214 -1 -265 -10z m433 -27 c506 -76 927 -401
1126 -871 83 -197 115 -375 108 -608 -6 -238 -50 -417 -149 -615 -130 -258
-378 -509 -629 -636 -625 -315 -1364 -146 -1796 411 -113 146 -200 328 -256
540 -30 112 -31 121 -31 340 -1 214 1 230 28 335 71 279 195 501 388 692 226
225 468 351 783 407 97 17 329 20 428 5z"/>
<path d="M3400 5324 c-631 -78 -1124 -566 -1210 -1202 -21 -151 -9 -371 28
-512 17 -63 40 -140 52 -170 144 -366 440 -662 796 -795 540 -202 1112 -64
1510 366 149 161 261 377 321 615 25 100 27 125 28 304 0 220 -8 274 -66 454
-68 207 -176 383 -334 541 -192 193 -433 324 -700 380 -78 16 -347 28 -425 19z
m485 -426 c0 -130 1 -134 33 -199 18 -36 43 -76 55 -90 111 -120 320 -429 406
-598 148 -291 173 -489 85 -668 -20 -40 -40 -73 -44 -73 -12 0 -20 27 -20 65
0 96 -69 362 -132 510 -64 151 -185 364 -252 446 -12 14 -32 41 -46 59 -40 54
-151 180 -158 180 -4 0 -23 -14 -42 -31 -19 -17 -46 -41 -60 -53 -23 -19 -27
-33 -37 -131 -14 -134 -31 -191 -81 -274 -47 -77 -113 -146 -199 -206 -140
-98 -260 -143 -413 -154 l-85 -6 -3 -68 c-7 -170 97 -287 270 -304 122 -11
234 24 344 108 49 38 56 48 110 177 25 58 48 60 191 18 137 -41 201 -48 227
-27 36 30 13 84 -73 164 -34 31 -61 59 -61 62 0 9 89 133 100 140 17 11 117
-94 140 -147 40 -93 10 -201 -86 -302 -29 -31 -32 -40 -36 -118 -3 -68 -10
-97 -36 -152 -86 -183 -191 -251 -307 -197 -81 37 -130 106 -144 201 -8 57
-31 63 -93 24 -69 -44 -179 -96 -233 -110 -65 -18 -174 -18 -216 0 -139 58
-202 254 -154 480 8 38 14 70 12 71 -1 1 -20 11 -42 21 -87 40 -159 141 -192
267 -24 93 -22 243 6 342 24 88 106 261 127 269 9 4 8 -6 -5 -37 -50 -117 -80
-332 -61 -436 26 -144 85 -200 253 -238 l67 -15 53 45 c169 144 532 472 535
483 10 40 -98 174 -209 260 l-57 43 25 101 c14 55 28 98 32 96 4 -3 70 -99
146 -215 77 -116 145 -211 150 -211 6 0 35 24 67 53 l56 52 -14 55 c-28 108
-14 237 34 315 19 31 61 85 66 85 1 0 1 -60 1 -132z m-752 -510 l39 -62 -59
-53 c-32 -29 -63 -53 -69 -53 -6 0 -27 26 -47 58 l-37 57 63 57 c34 32 64 57
67 58 3 0 22 -28 43 -62z m1109 -1001 l35 -53 -64 -69 -64 -69 -24 30 c-62 78
-63 76 6 149 34 36 65 65 69 65 4 0 23 -24 42 -53z m-64 -322 c18 -25 32 -51
32 -58 -1 -7 -29 -41 -64 -76 l-64 -64 -37 56 c-38 57 -38 57 -19 79 65 74 99
108 109 108 6 0 26 -20 43 -45z"/>
<path d="M3589 4337 c-9 -7 -49 -41 -89 -77 -40 -36 -81 -72 -90 -80 -33 -29
-165 -146 -254 -225 l-90 -80 37 -3 c51 -4 189 31 265 69 82 40 181 133 214
201 44 90 49 225 7 195z"/>
<path d="M3633 3405 c-39 -27 -28 -69 35 -137 50 -55 158 -91 201 -69 32 18
35 47 8 94 -52 88 -189 151 -244 112z"/>
<path d="M2423 5550 c-49 -20 -38 -97 23 -169 28 -33 42 -41 69 -41 43 0 59
20 52 70 -6 45 -58 123 -93 139 -14 6 -26 11 -27 10 -1 0 -12 -4 -24 -9z"/>
<path d="M5325 4044 c-43 -22 -54 -44 -36 -73 7 -11 18 -6 55 24 35 30 43 42
34 52 -13 16 -16 16 -53 -3z"/>
<path d="M5447 3989 c-14 -8 -16 -14 -6 -25 15 -18 43 -18 59 1 24 29 -14 46
-53 24z"/>
<path d="M2251 2638 c-6 -17 -10 -33 -8 -35 6 -5 67 18 67 26 0 9 -34 41 -42
41 -3 0 -11 -14 -17 -32z"/>
<path d="M2486 2454 c-8 -22 -7 -54 2 -54 6 0 43 22 61 37 6 5 -32 32 -45 33
-7 0 -15 -7 -18 -16z"/>
<path d="M4502 6048 c8 -23 110 -88 162 -103 58 -17 146 -20 146 -4 0 5 -10
28 -22 49 -28 49 -50 56 -186 64 -81 5 -103 3 -100 -6z"/>
<path d="M2569 6046 c-2 -2 -46 -6 -98 -10 -106 -8 -145 -24 -161 -69 -16 -48
-14 -49 58 -45 47 2 84 12 123 30 52 26 119 77 119 91 0 7 -34 10 -41 3z"/>
<path d="M5193 5844 c3 -10 20 -57 36 -104 17 -47 31 -86 31 -87 0 -1 14 -18
31 -38 35 -39 109 -78 140 -73 18 3 17 7 -13 68 -18 36 -50 86 -70 111 -49 59
-164 151 -155 123z"/>
<path d="M1880 5821 c-68 -50 -112 -96 -154 -161 -45 -67 -70 -126 -60 -141 7
-12 91 33 131 69 17 16 42 51 56 78 27 54 71 174 65 178 -1 2 -19 -8 -38 -23z"/>
<path d="M4872 5830 c6 -14 193 -162 217 -171 25 -10 77 -3 86 11 7 12 -20 73
-42 92 -10 9 -32 22 -48 28 -42 16 -216 49 -213 40z"/>
<path d="M2130 5806 c-111 -25 -154 -48 -175 -92 -25 -54 -21 -64 29 -64 49 0
97 30 241 154 36 30 30 31 -95 2z"/>
<path d="M5235 5518 c56 -84 135 -158 200 -189 84 -40 89 -39 83 21 -6 56 -29
89 -82 114 -255 119 -243 116 -201 54z"/>
<path d="M1855 5536 c-23 -11 -82 -41 -132 -65 -51 -24 -99 -51 -108 -61 -8
-9 -18 -37 -21 -63 -5 -37 -3 -48 9 -53 25 -9 124 46 177 99 47 47 126 155
118 161 -1 2 -21 -6 -43 -18z"/>
<path d="M5570 5459 c0 -8 7 -65 15 -125 l15 -109 77 -72 78 -72 3 33 c4 41
-39 172 -73 224 -38 58 -115 139 -115 121z"/>
<path d="M1482 5403 c-75 -85 -132 -217 -132 -303 0 -19 4 -30 8 -25 4 6 35
34 70 64 34 29 67 62 72 71 7 13 40 208 40 237 0 14 -24 -4 -58 -44z"/>
<path d="M5524 5138 c9 -44 53 -128 96 -183 33 -40 131 -115 152 -115 13 0 0
97 -17 130 -30 58 -193 200 -231 200 -3 0 -4 -15 0 -32z"/>
<path d="M1536 5134 c-99 -52 -196 -184 -196 -268 0 -20 4 -36 8 -36 19 0 100
62 130 99 51 64 134 232 114 231 -4 -1 -29 -12 -56 -26z"/>
<path d="M5825 4943 c-11 -132 -9 -155 11 -194 20 -39 89 -111 98 -102 11 11
6 116 -8 183 -14 66 -73 210 -86 210 -4 0 -11 -44 -15 -97z"/>
<path d="M1232 4957 c-18 -38 -39 -95 -47 -127 -19 -74 -20 -190 -2 -190 24 0
78 67 93 115 17 58 17 95 0 195 l-13 75 -31 -68z"/>
<path d="M5723 4710 c4 -41 14 -102 22 -134 17 -64 81 -169 105 -174 20 -3 50
48 50 86 0 36 -13 74 -32 93 -19 18 -108 146 -108 154 0 3 -10 16 -21 28 l-22
22 6 -75z"/>
<path d="M1349 4718 c-19 -29 -59 -86 -89 -127 -63 -86 -70 -125 -31 -179 l23
-33 25 23 c35 32 79 123 91 188 13 66 26 180 20 180 -2 0 -19 -24 -39 -52z"/>
<path d="M5991 4533 c-7 -32 -22 -84 -33 -117 -13 -37 -18 -72 -15 -97 5 -38
61 -139 77 -139 29 0 39 214 15 319 -23 96 -30 101 -44 34z"/>
<path d="M1077 4503 c-25 -108 -31 -185 -17 -258 7 -36 15 -67 19 -69 12 -8
38 19 61 63 19 38 22 56 18 115 -5 65 -39 190 -57 209 -4 4 -15 -23 -24 -60z"/>
<path d="M5847 4303 c-4 -3 -7 -52 -7 -109 0 -114 23 -208 63 -258 l23 -29 32
48 c18 27 32 58 32 69 0 16 -120 269 -134 283 -1 2 -6 0 -9 -4z"/>
<path d="M1192 4177 c-79 -160 -83 -176 -47 -227 15 -22 33 -40 39 -40 16 0
51 65 70 129 16 56 21 210 7 245 -5 14 -21 -10 -69 -107z"/>
<path d="M1018 4019 c-3 -79 2 -157 12 -217 12 -65 58 -172 75 -172 6 0 20 33
30 73 17 70 17 75 0 127 -17 50 -98 226 -110 238 -3 3 -6 -19 -7 -49z"/>
<path d="M6050 4012 c-13 -31 -38 -79 -54 -107 -26 -42 -31 -60 -31 -116 0
-46 6 -76 20 -102 11 -20 22 -37 25 -37 13 0 58 111 74 184 10 42 9 217 -1
227 -4 4 -19 -18 -33 -49z"/>
<path d="M5829 3788 c-7 -46 -13 -110 -12 -144 1 -72 28 -173 49 -181 26 -10
84 63 84 106 0 18 -95 289 -104 298 -2 2 -9 -34 -17 -79z"/>
<path d="M1233 3783 c-11 -38 -33 -101 -47 -142 -18 -49 -25 -83 -21 -103 8
-33 51 -88 70 -88 25 0 55 104 55 192 0 80 -18 208 -29 208 -4 0 -16 -30 -28
-67z"/>
<path d="M5985 3497 c-106 -162 -117 -189 -94 -240 6 -12 19 -28 29 -35 17
-10 23 -6 49 32 41 59 69 138 76 210 3 34 8 76 11 94 3 17 1 32 -3 32 -4 -1
-35 -42 -68 -93z"/>
<path d="M1050 3546 c0 -55 27 -182 50 -233 21 -49 66 -113 78 -113 17 0 54
71 50 97 -4 29 -157 282 -170 283 -5 0 -8 -15 -8 -34z"/>
<path d="M1306 3365 c-13 -138 -18 -234 -11 -264 5 -22 20 -41 52 -62 56 -39
63 -32 63 66 0 87 -19 165 -64 252 l-34 67 -6 -59z"/>
<path d="M5756 3338 c-48 -98 -63 -183 -47 -260 7 -32 16 -58 20 -58 10 0 54
48 76 83 15 24 17 41 11 130 -4 56 -11 120 -15 142 l-8 40 -37 -77z"/>
<path d="M5848 3041 c-141 -146 -151 -161 -151 -226 0 -30 3 -58 6 -61 19 -19
161 116 197 186 36 70 63 190 42 190 -4 0 -46 -40 -94 -89z"/>
<path d="M1160 3096 c0 -33 46 -173 63 -191 6 -8 23 -29 36 -47 28 -39 106
-102 138 -112 21 -7 22 -5 16 46 -8 80 -24 103 -143 222 -101 100 -110 108
-110 82z"/>
<path d="M5600 2935 c-59 -98 -81 -163 -87 -249 l-6 -79 33 7 c46 9 79 32 91
63 5 14 8 91 7 172 l-3 146 -35 -60z"/>
<path d="M1470 2823 c0 -137 2 -153 21 -177 21 -27 87 -61 98 -50 10 9 3 122
-10 178 -14 62 -59 154 -88 180 l-21 19 0 -150z"/>
<path d="M5735 2691 c-3 -6 -42 -32 -87 -58 -44 -26 -101 -66 -125 -88 -38
-35 -45 -47 -50 -92 -7 -66 9 -76 70 -40 63 37 141 125 181 205 20 39 36 74
36 77 0 9 -18 6 -25 -4z"/>
<path d="M1360 2660 c14 -49 70 -140 115 -186 23 -24 44 -44 48 -44 3 0 23
-11 43 -25 20 -14 46 -25 57 -25 17 0 19 5 15 49 -3 28 -12 61 -22 75 -14 22
-180 141 -243 174 -21 11 -21 11 -13 -18z"/>
<path d="M5402 2599 c-86 -81 -152 -201 -152 -276 0 -18 6 -23 25 -23 71 0
115 46 130 135 4 22 18 77 32 123 13 46 23 85 21 87 -2 2 -27 -19 -56 -46z"/>
<path d="M1653 2620 c12 -67 70 -268 83 -288 17 -27 53 -42 96 -42 30 0 31 1
25 40 -9 72 -59 161 -136 240 -58 60 -71 70 -68 50z"/>
<path d="M5454 2290 c-22 -10 -75 -29 -118 -44 -97 -32 -126 -49 -155 -91 -23
-34 -48 -111 -39 -120 10 -11 174 79 225 122 54 46 139 141 132 147 -2 2 -22
-4 -45 -14z"/>
<path d="M1650 2250 c62 -81 140 -148 212 -184 38 -20 78 -36 88 -36 16 0 17
4 8 38 -11 40 -29 76 -52 106 -8 10 -68 37 -133 61 -65 23 -127 46 -138 51
-15 6 -12 -2 15 -36z"/>
<path d="M5113 2265 c-48 -21 -124 -74 -155 -109 -30 -35 -78 -126 -78 -150 0
-21 94 -22 129 -2 27 15 166 276 147 276 -6 -1 -26 -7 -43 -15z"/>
<path d="M1952 2252 c1 -5 31 -63 66 -129 72 -138 98 -160 173 -148 38 7 40 9
34 34 -10 43 -68 131 -105 161 -51 40 -176 101 -168 82z"/>
<path d="M4653 1955 c-101 -31 -181 -83 -240 -156 -10 -13 -9 -30 8 -89 15
-54 17 -75 8 -80 -32 -21 -439 -57 -734 -66 -324 -10 -1007 34 -1040 68 -5 5
21 96 37 127 12 22 9 27 -43 75 -31 29 -81 65 -113 80 -100 49 -199 66 -151
26 9 -7 45 -48 81 -92 63 -76 64 -78 37 -78 -75 0 -104 12 -129 51 -13 21 -36
45 -51 53 -23 11 -288 56 -334 56 -8 0 6 -18 31 -40 l45 -40 -80 8 c-127 11
-341 8 -452 -7 -57 -8 -103 -16 -103 -18 0 -3 24 -28 53 -56 77 -74 110 -122
102 -147 -3 -11 -11 -20 -17 -20 -20 0 -154 -100 -211 -158 l-58 -59 63 13
c108 23 269 36 363 29 88 -6 523 -83 538 -95 4 -3 1 -28 -8 -55 -8 -27 -13
-50 -12 -51 6 -3 183 -35 274 -49 496 -73 1335 -82 1903 -19 119 13 420 61
427 68 2 2 -3 23 -11 48 -7 25 -11 50 -7 55 8 12 369 81 496 94 106 12 302 0
407 -25 67 -16 67 -13 -15 64 -55 51 -192 150 -209 150 -34 0 37 108 108 166
24 20 42 40 39 44 -18 29 -462 46 -577 22 -61 -12 -62 1 -2 51 25 20 39 37 32
37 -7 0 -76 -9 -152 -20 -155 -22 -200 -42 -237 -104 -16 -28 -27 -34 -66 -40
-25 -3 -57 -6 -72 -6 -24 0 -24 2 20 48 58 60 133 152 128 156 -2 2 -36 -7
-76 -19z m-2893 -375 c0 -34 -8 -37 -53 -13 l-32 16 30 13 c46 20 55 17 55
-16z m1127 -66 c8 -21 -19 -46 -40 -38 -20 7 -23 40 -4 47 23 10 38 7 44 -9z
m1378 -41 c-9 -37 -14 -42 -55 -49 -32 -5 -33 -4 -17 9 16 13 16 15 1 21 -24
9 -12 28 20 32 16 2 31 5 34 8 14 15 24 3 17 -21z m-649 -4 c14 -16 15 -23 7
-26 -7 -3 -13 -11 -13 -19 0 -9 5 -12 12 -8 8 5 9 2 5 -10 -5 -13 -3 -17 6
-13 8 3 14 -1 14 -9 0 -10 -9 -14 -26 -12 -14 2 -25 9 -24 15 2 7 -5 12 -15
10 -9 -1 -17 3 -17 8 0 6 6 9 13 9 20 -3 14 6 -13 16 l-25 10 22 25 c26 30 30
31 54 4z m890 -14 c8 -32 5 -34 -41 -42 -36 -6 -37 -5 -33 23 2 20 10 30 28
35 39 11 39 11 46 -16z m-793 -4 c9 -9 9 -16 0 -29 -9 -14 -6 -22 13 -42 15
-17 25 -40 26 -65 l3 -40 -49 -3 c-68 -4 -96 4 -96 28 0 18 5 19 55 15 63 -5
75 12 29 41 -14 9 -23 23 -20 30 3 7 -1 15 -8 17 -8 3 -15 18 -18 34 -4 26 -2
29 25 27 16 -1 34 -7 40 -13z m207 -7 c0 -19 -28 -30 -42 -16 -6 6 -8 17 -5
26 7 18 47 10 47 -10z m-1359 -20 c4 -16 7 -48 8 -71 l1 -43 40 0 c23 0 52 8
67 17 24 16 27 16 55 0 36 -21 128 -23 128 -4 0 7 -5 39 -11 71 -6 32 -8 60
-5 63 2 3 14 2 26 -2 17 -5 20 -12 16 -31 -4 -13 -1 -44 5 -69 11 -42 14 -45
44 -45 28 0 32 3 28 19 -10 39 78 67 128 41 34 -19 20 -30 -38 -30 -52 0 -56
-1 -42 -16 14 -13 25 -14 75 -5 68 13 90 2 49 -25 -23 -15 -57 -18 -225 -22
-143 -3 -203 -1 -219 8 -17 8 -26 9 -34 1 -6 -6 -26 -11 -44 -11 -46 0 -73 30
-73 81 0 22 -4 49 -10 59 -12 22 -3 53 14 47 6 -2 14 -17 17 -33z m163 19 c7
-18 -9 -33 -38 -33 -24 0 -10 16 19 23 14 3 11 5 -10 6 -23 1 -27 3 -15 11 22
14 37 12 44 -7z m816 -36 c0 -14 -19 -37 -31 -37 -14 0 -39 31 -34 41 9 14 65
11 65 -4z m385 -77 c-23 -44 -71 -62 -119 -44 -22 8 -10 24 19 24 13 0 36 5
50 12 23 10 26 16 20 44 -7 40 14 52 33 18 10 -20 10 -29 -3 -54z m-345 31 c5
-11 10 -36 10 -55 0 -27 -4 -36 -17 -37 -11 0 -13 -3 -5 -6 18 -7 15 -21 -5
-26 -10 -2 4 -4 31 -5 26 0 53 -5 59 -11 6 -6 25 -11 42 -12 l30 0 -25 -11
c-25 -11 -24 -11 14 -20 52 -11 62 -22 14 -15 -20 3 -39 2 -43 -1 -4 -4 -30
-7 -58 -8 -29 0 -74 -4 -101 -8 -33 -5 -46 -4 -41 3 3 6 -2 11 -12 11 -15 1
-14 4 7 22 20 17 21 20 5 13 -96 -37 -176 -45 -212 -20 -26 18 -38 67 -23 94
16 31 34 26 27 -8 -5 -24 -1 -32 18 -45 25 -17 86 -20 119 -7 28 11 3 23 -26
13 -12 -5 -34 -5 -48 -1 -24 8 -24 9 3 5 15 -2 30 1 33 5 3 5 -6 9 -20 9 -29
0 -43 15 -20 24 23 9 36 7 29 -4 -3 -5 -2 -10 4 -10 5 0 12 4 15 9 12 19 98
51 137 51 41 0 42 0 24 20 -15 16 -15 22 -5 35 17 20 27 19 40 -4z m529 -3
c-6 -44 6 -48 127 -48 104 0 133 7 104 25 -15 9 -12 35 5 35 20 0 37 -35 33
-68 l-3 -27 -110 -3 c-61 -2 -127 2 -147 8 -33 9 -38 15 -38 40 0 15 3 35 6
44 9 24 26 19 23 -6z m411 -54 c13 -32 -1 -59 -40 -79 -33 -17 -80 -20 -80 -5
0 6 9 10 21 10 11 0 34 8 50 17 25 15 28 21 23 50 -8 40 12 45 26 7z m-570
-55 c0 -5 -6 -9 -12 -9 -7 0 -23 -3 -35 -6 -14 -4 -23 -2 -23 5 0 14 40 30 58
24 6 -3 12 -9 12 -14z m-865 2 c-15 -14 -65 -25 -65 -14 0 17 12 23 44 23 18
0 26 -4 21 -9z m1193 -8 c2 -8 -6 -13 -22 -13 -25 0 -33 10 -19 24 10 10 36 3
41 -11z m-1053 -83 c3 -5 1 -10 -4 -10 -6 0 -11 5 -11 10 0 6 2 10 4 10 3 0 8
-4 11 -10z"/>
<path d="M4480 1449 c0 -5 5 -7 10 -4 6 3 10 8 10 11 0 2 -4 4 -10 4 -5 0 -10
-5 -10 -11z"/>
<path d="M4450 1439 c0 -5 5 -7 10 -4 6 3 10 8 10 11 0 2 -4 4 -10 4 -5 0 -10
-5 -10 -11z"/>
<path d="M3460 1260 c-13 -8 -13 -10 2 -10 9 0 19 -9 23 -19 4 -14 11 -18 23
-14 10 4 12 8 4 11 -20 6 -13 20 16 30 26 10 26 10 -13 11 -22 0 -47 -4 -55
-9z"/>
<path d="M3270 1733 c0 -16 -5 -34 -12 -41 -7 -7 -8 -12 -2 -12 14 0 44 33 44
47 0 6 -7 16 -15 23 -13 11 -15 8 -15 -17z"/>
<path d="M3235 1740 c-3 -5 -1 -10 4 -10 6 0 11 5 11 10 0 6 -2 10 -4 10 -3 0
-8 -4 -11 -10z"/>
<path d="M3416 1734 c-10 -27 -7 -81 7 -92 10 -8 12 2 12 49 0 58 -7 74 -19
43z"/>
<path d="M3475 1690 c-1 -67 8 -77 25 -26 7 23 7 41 1 60 -17 42 -26 30 -26
-34z"/>
<path d="M3627 1744 c-10 -11 -8 -114 2 -114 5 0 11 24 14 53 5 50 -2 75 -16
61z"/>
<path d="M3764 1736 c-3 -9 -1 -23 5 -30 8 -10 9 -16 1 -21 -13 -8 -13 -45 0
-45 6 0 10 9 10 20 0 29 28 25 36 -5 3 -14 10 -22 15 -19 18 11 8 40 -26 78
-28 32 -36 36 -41 22z"/>
<path d="M3810 1741 c0 -6 5 -13 10 -16 6 -3 10 1 10 9 0 9 -4 16 -10 16 -5 0
-10 -4 -10 -9z"/>
<path d="M3230 1640 c0 -5 14 -10 30 -10 17 0 30 5 30 10 0 6 -13 10 -30 10
-16 0 -30 -4 -30 -10z"/>
</g>
</svg>
