<svg width="9" height="9" viewBox="0 0 9 9" fill="none" xmlns="http://www.w3.org/2000/svg">
<path d="M5.12543 4.60604C5.12543 4.74444 5.01324 4.85664 4.87484 4.85664C4.73644 4.85664 4.62424 4.74444 4.62424 4.60604C4.62424 4.46764 4.73644 4.35544 4.87484 4.35544C5.01324 4.35544 5.12543 4.46764 5.12543 4.60604Z" fill="#1C1D1D"/>
<path d="M5.12543 4.60604C5.12543 4.74444 5.01324 4.85664 4.87484 4.85664C4.73644 4.85664 4.62424 4.74444 4.62424 4.60604C4.62424 4.46764 4.73644 4.35544 4.87484 4.35544M5.12543 4.60604C5.12543 4.46764 5.01324 4.35544 4.87484 4.35544M5.12543 4.60604H6.37842M4.87484 4.35544V2.76833M7.882 4.60604C7.882 6.26685 6.53565 7.6132 4.87484 7.6132C3.21403 7.6132 1.86768 6.26685 1.86768 4.60604C1.86768 2.94523 3.21403 1.59888 4.87484 1.59888C6.53565 1.59888 7.882 2.94523 7.882 4.60604Z" stroke="#1C1D1D" stroke-width="0.501194" stroke-linecap="round" stroke-linejoin="round"/>
</svg>
