<svg width="8" height="9" viewBox="0 0 8 9" fill="none" xmlns="http://www.w3.org/2000/svg">
<path d="M2.21407 8.60477C1.80347 8.60477 1.49298 8.50085 1.28261 8.29301C1.07223 8.08517 0.967047 7.77722 0.967047 7.36914V3.62806C0.967047 3.22252 1.07223 2.91584 1.28261 2.708C1.49298 2.49762 1.80347 2.39244 2.21407 2.39244H3.31663V3.14142H2.2597C2.08228 3.14142 1.94667 3.18831 1.85289 3.28209C1.76165 3.37333 1.71602 3.51147 1.71602 3.6965V7.30451C1.71602 7.48954 1.76165 7.62767 1.85289 7.71892C1.94667 7.8127 2.08228 7.85959 2.2597 7.85959H6.54446C6.71934 7.85959 6.85368 7.8127 6.94746 7.71892C7.04377 7.62767 7.09193 7.48954 7.09193 7.30451V3.6965C7.09193 3.51147 7.04377 3.37333 6.94746 3.28209C6.85368 3.18831 6.71934 3.14142 6.54446 3.14142H5.49133V2.39244H6.59388C7.00449 2.39244 7.31498 2.49762 7.52535 2.708C7.73572 2.91584 7.84091 3.22252 7.84091 3.62806V7.36914C7.84091 7.77468 7.73572 8.08137 7.52535 8.28921C7.31498 8.49958 7.00449 8.60477 6.59388 8.60477H2.21407ZM4.40398 6.14113C4.35835 6.14113 4.314 6.13352 4.27091 6.11831C4.22782 6.10057 4.1822 6.06889 4.13404 6.02327L2.8566 4.79145C2.79323 4.72555 2.76155 4.65078 2.76155 4.56713C2.76155 4.47842 2.7907 4.40619 2.84899 4.35042C2.90983 4.29466 2.9846 4.26678 3.07331 4.26678C3.16962 4.26678 3.2482 4.301 3.30903 4.36943L3.84129 4.93592L4.08842 5.21346L4.0504 4.64697V0.70819C4.0504 0.614409 4.08462 0.533302 4.15305 0.464867C4.22402 0.396433 4.30766 0.362216 4.40398 0.362216C4.50029 0.362216 4.58267 0.396433 4.6511 0.464867C4.72207 0.533302 4.75756 0.614409 4.75756 0.70819V4.64697L4.71954 5.21346L4.96286 4.93592L5.49513 4.36943C5.55849 4.301 5.63707 4.26678 5.73085 4.26678C5.81702 4.26678 5.89053 4.29466 5.95136 4.35042C6.01472 4.40619 6.04641 4.47842 6.04641 4.56713C6.04641 4.65078 6.01346 4.72555 5.94756 4.79145L4.67011 6.02327C4.62449 6.06889 4.58013 6.10057 4.53704 6.11831C4.49396 6.13352 4.4496 6.14113 4.40398 6.14113Z" fill="white"/>
</svg>
