<svg width="9" height="9" viewBox="0 0 9 9" fill="none" xmlns="http://www.w3.org/2000/svg">
<path d="M3.86528 3.26943C3.86528 3.45397 3.71569 3.60356 3.53115 3.60356C3.34662 3.60356 3.19702 3.45397 3.19702 3.26943C3.19702 3.0849 3.34662 2.9353 3.53115 2.9353C3.71569 2.9353 3.86528 3.0849 3.86528 3.26943Z" fill="#1C1D1D"/>
<path d="M4.61698 3.26952H5.78643M3.44753 4.60604H5.78643M3.44753 5.94256H5.78643M4.08237 7.6132H5.15159C5.90333 7.6132 6.27919 7.6132 6.54269 7.42177C6.62778 7.35994 6.70262 7.2851 6.76445 7.20001C6.95589 6.93651 6.95589 6.56064 6.95589 5.80891V3.40318C6.95589 2.65144 6.95589 2.27557 6.76445 2.01208C6.70262 1.92698 6.62778 1.85214 6.54269 1.79032C6.27919 1.59888 5.90333 1.59888 5.15159 1.59888H4.08237C3.33064 1.59888 2.95477 1.59888 2.69128 1.79032C2.60618 1.85214 2.53134 1.92698 2.46952 2.01208C2.27808 2.27557 2.27808 2.65144 2.27808 3.40317V5.80891C2.27808 6.56064 2.27808 6.93651 2.46952 7.20001C2.53134 7.2851 2.60618 7.35994 2.69128 7.42177C2.95477 7.6132 3.33064 7.6132 4.08237 7.6132Z" stroke="#1C1D1D" stroke-width="0.501194" stroke-linecap="round" stroke-linejoin="round"/>
</svg>
